<svg width="30" height="22" viewBox="0 0 30 22" fill="none" xmlns="http://www.w3.org/2000/svg">
<path d="M21.75 11C23.82 11 25.485 9.32 25.485 7.25C25.485 5.18 23.82 3.5 21.75 3.5C19.68 3.5 18 5.18 18 7.25C18 9.32 19.68 11 21.75 11ZM10.5 9.5C12.99 9.5 14.985 7.49 14.985 5C14.985 2.51 12.99 0.5 10.5 0.5C8.01 0.5 6 2.51 6 5C6 7.49 8.01 9.5 10.5 9.5ZM21.75 14C19.005 14 13.5 15.38 13.5 18.125V21.5H30V18.125C30 15.38 24.495 14 21.75 14ZM10.5 12.5C7.005 12.5 0 14.255 0 17.75V21.5H10.5V18.125C10.5 16.85 10.995 14.615 14.055 12.92C12.75 12.65 11.49 12.5 10.5 12.5Z" fill="#323232"/>
</svg>
